<svg width="32" height="29" viewBox="0 0 32 29" fill="none" xmlns="http://www.w3.org/2000/svg">
<path d="M31.3039 12.596C29.4526 10.431 27.2446 8.399 24.9046 6.86161L30.1114 1.61357C30.4777 1.24448 30.4777 0.645903 30.1114 0.276815C29.7452 -0.0922718 29.1514 -0.0922718 28.7852 0.276815L23.2396 5.86629C20.789 4.54516 18.3624 3.87666 16 3.87666C10.1055 3.87666 4.53422 8.10759 0.696094 12.596C-0.232031 13.6814 -0.232031 15.3185 0.696094 16.404C2.54741 18.5689 4.75541 20.6009 7.09535 22.1383L1.88853 27.3864C1.52228 27.7554 1.52228 28.354 1.88853 28.7231C2.25485 29.0923 2.8486 29.0923 3.21478 28.7231L8.76035 23.1336C11.211 24.4548 13.6375 25.1233 15.9999 25.1233C21.8944 25.1233 27.4657 20.8923 31.3038 16.404C32.2321 15.3186 32.2321 13.6814 31.3039 12.596ZM2.11685 15.1697C1.78503 14.7816 1.78503 14.2183 2.11685 13.8302C4.18991 11.4059 9.69266 5.7672 16 5.7672C18.0657 5.7672 20.0452 6.37214 21.8461 7.27083L19.274 9.86326C18.3499 9.19841 17.2195 8.80677 16 8.80677C12.8854 8.80677 10.3515 11.3608 10.3515 14.5C10.3515 15.7291 10.74 16.8684 11.3996 17.8L8.4546 20.7683C5.5611 18.9421 3.28985 16.5415 2.11685 15.1697ZM19.7728 14.5C19.7728 16.5968 18.0803 18.3027 16 18.3027C15.2993 18.3027 14.643 18.1085 14.0802 17.7718L16.6631 15.1684L19.246 12.5651C19.5802 13.1323 19.7728 13.7938 19.7728 14.5ZM12.2272 14.5C12.2272 12.4032 13.9197 10.6973 16 10.6973C16.7007 10.6973 17.3569 10.8915 17.9197 11.2283L15.3369 13.8316L12.754 16.4349C12.4198 15.8677 12.2272 15.2062 12.2272 14.5ZM29.8831 15.1697C27.8101 17.5941 22.3073 23.2328 16 23.2328C13.9342 23.2328 11.9548 22.6279 10.1539 21.7292L12.7259 19.1367C13.6501 19.8016 14.7805 20.1932 16 20.1932C19.1145 20.1932 21.6485 17.6392 21.6485 14.5C21.6485 13.2709 21.26 12.1316 20.6003 11.2L23.5453 8.23169C26.4388 10.0579 28.7101 12.4585 29.8831 13.8302C30.2149 14.2183 30.2149 14.7816 29.8831 15.1697Z" fill="white"/>
</svg>
