<svg width="34" height="22" viewBox="0 0 34 22" fill="none" xmlns="http://www.w3.org/2000/svg">
<path d="M33.7698 12.0463C34.089 11.5922 34.0751 10.9723 33.7351 10.5327C28.5928 3.96653 23.041 0.636612 17.2255 0.636612C7.36422 0.636612 0.514741 10.1795 0.230213 10.5831C-0.0890131 11.0372 -0.0751337 11.6571 0.264912 12.0967C5.40029 18.6701 10.9521 22 16.7675 22C26.6288 22 33.4783 12.4571 33.7698 12.0463ZM16.7675 19.5278C11.9236 19.5278 7.20461 16.7601 2.72157 11.3111C4.47731 9.15602 10.0568 3.10883 17.2255 3.10883C22.0695 3.10883 26.7884 5.87655 31.2715 11.3255C29.5158 13.4806 23.9362 19.5278 16.7675 19.5278Z" fill="white"/>
<path d="M16.9965 5.04047C13.6655 5.04047 10.952 7.85865 10.952 11.3183C10.952 14.778 13.6655 17.5961 16.9965 17.5961C20.3276 17.5961 23.041 14.778 23.041 11.3183C23.041 7.85865 20.3276 5.04047 16.9965 5.04047ZM16.9965 15.1239C14.9771 15.1239 13.3323 13.4157 13.3323 11.3183C13.3323 9.22089 14.9771 7.51268 16.9965 7.51268C19.016 7.51268 20.6607 9.22089 20.6607 11.3183C20.6607 13.4157 19.016 15.1239 16.9965 15.1239Z" fill="white"/>
</svg>
