<svg width="58" height="60" viewBox="0 0 58 60" fill="none" xmlns="http://www.w3.org/2000/svg">
<rect width="58" height="60" rx="29" fill="#F8F3F3"/>
<path d="M29.0002 6C21.4199 6 15.2527 12.4282 15.2527 20.3297V28.5138C15.2527 28.6068 15.1426 28.7635 15.0561 28.7935C14.3127 29.0519 13.7089 29.2758 13.1562 29.4979C12.4971 29.7628 12 30.5241 12 31.269V50.0737C12 50.8134 12.4939 51.5754 13.1488 51.846C18.2161 53.939 23.5492 55 29.0001 55C34.451 55 39.7842 53.9387 44.8517 51.8457C45.5063 51.5753 46 50.8134 46 50.0737V31.269C46 30.5241 45.503 29.7628 44.8436 29.4977C44.2906 29.2756 43.6869 29.0516 42.9441 28.7932C42.8578 28.7633 42.7477 28.6065 42.7477 28.5135V20.3295C42.7473 12.4282 36.5805 6 29.0002 6ZM25.2557 36.9962C25.2557 34.8391 26.9322 33.0935 29 33.0935C31.0676 33.0935 32.744 34.8389 32.744 36.9962C32.744 38.4256 31.9707 39.6223 30.872 40.3007V46.7531C30.872 47.8318 30.0347 48.7045 28.9999 48.7045C27.965 48.7045 27.1278 47.8318 27.1278 46.7531V40.3007C26.0291 39.6223 25.2557 38.4256 25.2557 36.9962ZM38.0206 20.3295V27.3908C35.0625 26.7274 32.0277 26.3913 29.0014 26.3911C25.9765 26.3911 22.9423 26.7272 19.9797 27.3901V20.3295C19.9797 15.1449 24.0261 10.9272 29 10.9272C33.9737 10.9271 38.0206 15.1449 38.0206 20.3295Z" fill="black"/>
</svg>
